<?xml version="1.0" encoding="utf-8"?>
<!-- Generator: Adobe Illustrator 24.0.2, SVG Export Plug-In . SVG Version: 6.00 Build 0)  -->
<svg version="1.1" id="Layer_1" xmlns="http://www.w3.org/2000/svg" xmlns:xlink="http://www.w3.org/1999/xlink" x="0px" y="0px"
	 viewBox="0 0 24 24" style="enable-background:new 0 0 24 24;" xml:space="preserve">
<style type="text/css">
	.st0{fill:#5186A6;}
</style>
<g>
	<g>
		<path class="st0" d="M18.9,16.2L16.7,14c-0.4-0.4-1.2-0.4-1.6,0l-1.1,1.1c-0.1,0-0.1-0.1-0.2-0.1C13,14.6,12,14.1,11,13
			c-1-1-1.6-2-2-2.7c0-0.1-0.1-0.1-0.1-0.2l0.8-0.8L10,9c0.5-0.5,0.5-1.2,0-1.6L7.8,5.1c-0.4-0.4-1.2-0.4-1.6,0L5.6,5.8l0,0
			C5.4,6.1,5.2,6.4,5.1,6.7C5,7,4.9,7.3,4.8,7.7c-0.3,2.4,0.8,4.7,3.8,7.7c4.2,4.2,7.5,3.9,7.7,3.8c0.3,0,0.6-0.1,0.9-0.2
			c0.3-0.1,0.6-0.3,0.9-0.5l0,0l0.6-0.6C19.3,17.4,19.3,16.6,18.9,16.2z"/>
	</g>
</g>
<g>
	<path class="st0" d="M12,1.3c5.9,0,10.7,4.8,10.7,10.7S17.9,22.7,12,22.7S1.3,17.9,1.3,12S6.1,1.3,12,1.3 M12,0.3
		C5.5,0.3,0.3,5.5,0.3,12S5.5,23.7,12,23.7S23.7,18.5,23.7,12S18.5,0.3,12,0.3L12,0.3z"/>
</g>
</svg>
