<?xml version="1.0" encoding="utf-8"?>
<!-- Generator: Adobe Illustrator 24.0.2, SVG Export Plug-In . SVG Version: 6.00 Build 0)  -->
<svg version="1.1" id="Capa_1" xmlns="http://www.w3.org/2000/svg" xmlns:xlink="http://www.w3.org/1999/xlink" x="0px" y="0px"
	 viewBox="0 0 72 72" style="enable-background:new 0 0 72 72;" xml:space="preserve">
<g>
	<g>
		<g>
			<circle cx="7.9" cy="8.3" r="1.5"/>
			<circle cx="13.8" cy="8.3" r="1.5"/>
			<circle cx="19.7" cy="8.3" r="1.5"/>
			<path d="M26.6,42.6l-7.5-6.2l7.5-6.2c0.6-0.5,0.7-1.5,0.2-2.1c-0.5-0.6-1.5-0.7-2.1-0.2l-8.9,7.4c-0.3,0.3-0.5,0.7-0.5,1.1
				s0.2,0.9,0.5,1.1l8.9,7.4c0.3,0.2,0.6,0.3,0.9,0.3c0.4,0,0.8-0.2,1.1-0.5C27.3,44,27.2,43.1,26.6,42.6z"/>
			<path d="M39.2,44.6c0.3,0.3,0.7,0.5,1.1,0.5c0.3,0,0.7-0.1,0.9-0.3l8.9-7.4c0.3-0.3,0.5-0.7,0.5-1.1c0-0.4-0.2-0.9-0.5-1.1
				l-8.9-7.4c-0.6-0.5-1.6-0.4-2.1,0.2c-0.5,0.6-0.4,1.6,0.2,2.1l7.5,6.2l-7.5,6.2C38.8,43.1,38.7,44,39.2,44.6z"/>
			<path d="M38,24.6c-0.7-0.3-1.6,0-1.9,0.8l-8.9,20.7c-0.3,0.7,0,1.6,0.8,1.9c0.2,0.1,0.4,0.1,0.6,0.1c0.6,0,1.1-0.3,1.4-0.9
				l8.9-20.7C39.1,25.8,38.8,24.9,38,24.6z"/>
			<path d="M70.3,51.1l-2.8-0.7l1.5-2.5c0.3-0.6,0.3-1.3-0.2-1.8l-3.2-3.2V6.8c0-3.3-2.6-5.9-5.9-5.9H6.4c-3.3,0-5.9,2.7-5.9,5.9
				v53.2c0,3.3,2.6,5.9,5.9,5.9h36.1l3.2,3.2c0.5,0.5,1.2,0.6,1.8,0.2l2.5-1.5l0.7,2.8c0.2,0.7,0.8,1.1,1.4,1.1h5.9
				c0.7,0,1.3-0.5,1.4-1.1l0.7-2.8l2.5,1.5c0.6,0.3,1.3,0.3,1.8-0.2l4.2-4.2c0.5-0.5,0.6-1.2,0.2-1.8l-1.5-2.5l2.8-0.7
				c0.7-0.2,1.1-0.8,1.1-1.4v-5.9C71.4,51.9,70.9,51.3,70.3,51.1z M3.5,6.8c0-1.6,1.3-3,3-3h53.2c1.6,0,3,1.3,3,3v5.9H3.5V6.8z
				 M41.5,62.9H6.4c-1.6,0-3-1.3-3-3V15.6h59.1v26.2l-2.3,1.4l-0.7-2.8c-0.2-0.7-0.8-1.1-1.4-1.1h-5.9c-0.7,0-1.3,0.5-1.4,1.1
				L50,43.2l-2.5-1.5c-0.6-0.3-1.3-0.3-1.8,0.2l-4.2,4.2c-0.5,0.5-0.6,1.2-0.2,1.8l1.5,2.5L40,51.1c-0.7,0.2-1.1,0.8-1.1,1.4v5.9
				c0,0.7,0.5,1.3,1.1,1.4l2.8,0.7L41.5,62.9z M68.4,57.3l-2.5,0.6c-0.5,0.1-0.9,0.5-1,0.9c-0.1,0.4-0.3,0.7-0.4,1.1
				c-0.2,0.4-0.2,1,0.1,1.4l1.3,2.2l-2.5,2.5L61,64.8c-0.4-0.3-1-0.3-1.4-0.1c-0.4,0.2-0.7,0.3-1.1,0.5c-0.5,0.2-0.8,0.6-0.9,1
				l-0.6,2.5h-3.6l-0.6-2.5c-0.1-0.5-0.5-0.9-0.9-1c-0.4-0.1-0.7-0.3-1.1-0.5c-0.4-0.2-1-0.2-1.4,0.1L47,66.2l-2.5-2.5l1.3-2.2
				c0.3-0.4,0.3-1,0.1-1.4c-0.2-0.4-0.3-0.7-0.4-1.1c-0.2-0.5-0.6-0.8-1-0.9l-2.5-0.6v-3.6l2.5-0.6c0.5-0.1,0.9-0.5,1-0.9
				c0.1-0.4,0.3-0.7,0.4-1.1c0.2-0.4,0.2-1-0.1-1.4l-1.3-2.2l2.5-2.5l2.2,1.3c0.4,0.3,1,0.3,1.4,0.1c0.4-0.2,0.7-0.3,1.1-0.5
				c0.5-0.2,0.8-0.6,0.9-1l0.6-2.5h3.6l0.6,2.5c0.1,0.5,0.5,0.9,0.9,1c0.4,0.1,0.7,0.3,1.1,0.5c0.4,0.2,1,0.2,1.4-0.1l2.2-1.3
				l2.5,2.5l-1.3,2.2c-0.3,0.4-0.3,1-0.1,1.4c0.2,0.4,0.3,0.7,0.4,1.1c0.2,0.5,0.6,0.8,1,0.9l2.5,0.6V57.3z"/>
			<path d="M55.1,48.1c-4.1,0-7.4,3.3-7.4,7.4s3.3,7.4,7.4,7.4s7.4-3.3,7.4-7.4S59.2,48.1,55.1,48.1z M55.1,59.9
				c-2.4,0-4.4-2-4.4-4.4s2-4.4,4.4-4.4s4.4,2,4.4,4.4S57.6,59.9,55.1,59.9z"/>
		</g>
	</g>
</g>
</svg>
