<svg width="72" height="72" viewBox="0 0 72 72" fill="none" xmlns="http://www.w3.org/2000/svg">
<g clip-path="url(#clip0)">
<path d="M63.2 45.8003H8.8V48.4003H63.3L63.2 45.8003Z" fill="#5186A6"/>
<path d="M42.5 51.8003H29.5V54.4003H42.5V51.8003Z" fill="#5186A6"/>
<path d="M65.6 8.50034H51C51 8.30034 50.9 8.00034 50.8 7.80034C50.1 5.80034 49.3 3.80034 49.6 1.60034C49.6 1.20034 49.5 0.800342 49.2 0.600342C49 0.300342 48.6 0.100342 48.2 0.100342C44.7 0.100342 40.9 3.00034 39 7.20034C38.8 7.60034 38.7 8.10034 38.5 8.50034H30.8L28.3 1.00034C28.2 0.500342 27.6 0.100342 27.1 0.100342C26.6 0.100342 26.1 0.500342 26 0.900342L23.2 8.50034H6.3C2.8 8.50034 0 11.3003 0 14.8003V54.1003C0 57.6003 2.8 60.4003 6.3 60.4003H29.4V61.0003C28.9 64.3003 27.1 67.2003 24.5 69.2003L24 69.6003C23.6 69.9003 23.3 70.5003 23.5 71.0003C23.7 71.6003 24.2 71.9003 24.8 71.9003H47.3C47.9 71.9003 48.4 71.5003 48.5 71.1003C48.7 70.5003 48.5 69.9003 48.1 69.6003L47.6 69.2003C45 67.2003 43.2 64.3003 42.7 61.0003L42.6 60.4003H65.7C67.4 60.4003 69 59.7003 70.2 58.5003C71.4 57.3003 72 55.8003 71.9 54.1003V14.8003C71.9 11.3003 69.1 8.50034 65.6 8.50034ZM41.5 8.30034C42.4 6.20034 44.2 4.20034 46.2 3.30034L46.8 3.00034L46.9 3.70034C47.1 5.30034 47.6 6.90034 48.1 8.30034L48.2 8.60034C49.3 12.0003 50.2 14.6003 47.4 18.0003L47.2 18.2003H42.9L42.8 18.0003C39.8 14.4003 40.4 10.7003 41.5 8.30034ZM47.3 24.4003H43.1L43.7 21.0003H46.9L47.3 24.4003ZM27 5.50034L30.5 15.5003H23.3L27 5.50034ZM43 68.5003L43.6 69.3003H28.3L28.9 68.5003C30.6 66.3003 31.7 63.6003 32 60.9003V60.4003H39.7V60.9003C40.2 63.5003 41.3 66.1003 43 68.5003ZM69.3 54.1003C69.3 56.1003 67.7 57.7003 65.7 57.7003H41.7C41.5 57.6003 41.4 57.6003 41.3 57.6003H30.9C30.8 57.6003 30.6 57.6003 30.5 57.7003H30.3H6.3C4.3 57.7003 2.7 56.1003 2.7 54.1003V14.8003C2.7 12.8003 4.3 11.2003 6.3 11.2003H22.1L20.2 16.4003C20.1 16.5003 20.1 16.7003 20.1 16.8003V42.1003H22.7V18.1003H31V42.1003H33.6V16.8003C33.6 16.6003 33.6 16.5003 33.6 16.4003V16.3003L31.8 11.1003H38C37.9 12.0003 37.9 12.9003 38 13.7003C38.3 16.0003 39.2 18.0003 40.7 19.8003L40.8 20.0003L40 25.7003C38.9 27.8003 38.3 30.3003 38.3 32.7003C38.3 35.6003 38.5 42.1003 38.5 42.1003H41.2C41.2 42.1003 41.2 35.4003 41.2 32.6003C41.1 30.9003 41.5 29.1003 42.3 27.4003L42.4 27.1003H48.1L48.2 27.4003C48.9 28.9003 49.3 30.7003 49.3 32.6003C49.3 35.4003 49.1 42.1003 49.1 42.1003H51.7C51.7 42.1003 51.9 35.6003 51.9 32.7003C52 30.1003 51.3 27.4003 50 25.2003L50.1 25.0003L49.4 20.0003L49.5 19.8003C52.2 16.5003 52.4 13.7003 51.8 11.1003H65.6C67.6 11.1003 69.2 12.7003 69.2 14.7003V54.1003H69.3Z" fill="#5186A6"/>
</g>
<defs>
<clipPath id="clip0">
<rect width="72" height="72" fill="white" transform="translate(0 0.000244141)"/>
</clipPath>
</defs>
</svg>
