<svg width="983" height="656" viewBox="0 0 983 656" fill="none" xmlns="http://www.w3.org/2000/svg">
<mask id="mask0" mask-type="alpha" maskUnits="userSpaceOnUse" x="0" y="0" width="1060" height="656">
<rect width="1060" height="656" fill="#C4C4C4"/>
</mask>
<g mask="url(#mask0)">
<path fill-rule="evenodd" clip-rule="evenodd" d="M485.588 67.0833C602.557 14.7899 712.845 14.6863 805.062 53.9323C897.498 92.8676 971.972 171.152 1022.46 268.387C1070.98 366.657 1070.87 472.176 1031.33 557.502C991.139 644.175 924.331 709.515 833.318 756.114C785.129 779.62 734.42 795.67 669.912 805.508C606.28 815.241 528.958 818.762 447.036 813.688C284.397 804.058 102.153 758.806 63.8209 656.601C42.0261 605.861 55.6068 547.665 82.7681 489.055C110.258 430.445 151.219 371.421 194.151 317.056C237.522 262.588 283.083 212.78 329.848 170.531C377.052 128.179 425.68 93.3853 485.588 67.0833Z" fill="#5F91AF"/>
<path fill-rule="evenodd" clip-rule="evenodd" d="M485.588 67.0833C602.557 14.7899 712.845 14.6863 805.062 53.9323C897.498 92.8676 971.972 171.152 1022.46 268.387C1070.98 366.657 1070.87 472.176 1031.33 557.502C991.139 644.175 924.331 709.515 833.318 756.114C785.129 779.62 734.42 795.67 669.912 805.508C606.28 815.241 528.958 818.762 447.036 813.688C284.397 804.058 102.153 758.806 63.8209 656.601C42.0261 605.861 55.6068 547.665 82.7681 489.055C110.258 430.445 151.219 371.421 194.151 317.056C237.522 262.588 283.083 212.78 329.848 170.531C377.052 128.179 425.68 93.3853 485.588 67.0833Z" fill="url(#paint0_linear)"/>
</g>
<defs>
<linearGradient id="paint0_linear" x1="-162" y1="769" x2="575.056" y2="251.616" gradientUnits="userSpaceOnUse">
<stop offset="0.0737403" stop-color="white"/>
<stop offset="1" stop-color="white" stop-opacity="0"/>
</linearGradient>
</defs>
</svg>
