<?xml version="1.0" encoding="utf-8"?>
<!-- Generator: Adobe Illustrator 24.0.2, SVG Export Plug-In . SVG Version: 6.00 Build 0)  -->
<svg version="1.1" id="Capa_1" xmlns="http://www.w3.org/2000/svg" xmlns:xlink="http://www.w3.org/1999/xlink" x="0px" y="0px"
	 viewBox="0 0 24 24" style="enable-background:new 0 0 24 24;" xml:space="preserve">
<style type="text/css">
	.st0{fill:none;}
</style>
<g>
	<path d="M17.9,0.2l-3.1,0c-3.4,0-5.7,2.3-5.7,5.8v2.7H6.1c-0.3,0-0.5,0.2-0.5,0.5V13c0,0.3,0.2,0.5,0.5,0.5h3.1v9.8
		c0,0.3,0.2,0.5,0.5,0.5h4c0.3,0,0.5-0.2,0.5-0.5v-9.8h3.6c0.3,0,0.5-0.2,0.5-0.5V9.2c0-0.1-0.1-0.2-0.1-0.3
		c-0.1-0.1-0.2-0.1-0.3-0.1h-3.6V6.4c0-1.1,0.3-1.6,1.7-1.6h2.1c0.3,0,0.5-0.2,0.5-0.5V0.7C18.4,0.4,18.2,0.2,17.9,0.2z"/>
</g>
<rect y="0" class="st0" width="24" height="24"/>
</svg>
