<?xml version="1.0" encoding="utf-8"?>
<!-- Generator: Adobe Illustrator 24.0.2, SVG Export Plug-In . SVG Version: 6.00 Build 0)  -->
<svg version="1.1" id="Capa_1" xmlns="http://www.w3.org/2000/svg" xmlns:xlink="http://www.w3.org/1999/xlink" x="0px" y="0px"
	 viewBox="0 0 24 24" style="enable-background:new 0 0 24 24;" xml:space="preserve">
<style type="text/css">
	.st0{fill:none;}
</style>
<g>
	<g>
		<path d="M3.1,0h17.8C22.6,0,24,1.3,24,3.1v17.8c0,1.8-1.4,3.1-3.1,3.1H3.1C1.4,24,0,22.7,0,20.9V3.1C0,1.3,1.4,0,3.1,0L3.1,0z
			 M17.5,2.7c-0.6,0-1.1,0.5-1.1,1.1v2.6c0,0.6,0.5,1.1,1.1,1.1h2.7c0.6,0,1.1-0.5,1.1-1.1V3.7c0-0.6-0.5-1.1-1.1-1.1h-2.7V2.7z
			 M21.3,10.1h-2.1c0.2,0.7,0.3,1.3,0.3,2.1c0,4-3.3,7.2-7.5,7.2c-4.1,0-7.5-3.2-7.5-7.2c0-0.7,0.1-1.4,0.3-2.1H2.7v10.1
			c0,0.5,0.4,1,1,1h16.7c0.5,0,1-0.4,1-1L21.3,10.1L21.3,10.1z M12,7.3c-2.7,0-4.8,2.1-4.8,4.7s2.2,4.7,4.8,4.7
			c2.7,0,4.8-2.1,4.8-4.7S14.7,7.3,12,7.3z"/>
	</g>
	<rect class="st0" width="24" height="24"/>
</g>
</svg>
