<svg width="72" height="72" viewBox="0 0 72 72" fill="none" xmlns="http://www.w3.org/2000/svg">
<path d="M69.3 45.2002C69.3 44.5002 68.7 43.9002 68 43.9002H17L17.5 43.6002L54.9 22.0002L55 22.1002L63.6 37.1002C63.7 37.4002 63.9 37.5002 64.2 37.6002C64.6 37.7002 65 37.7002 65.3 37.5002C65.5 37.4002 65.7 37.2002 65.8 36.9002C65.9 36.5002 65.9 36.1002 65.7 35.8002L56.4 19.8002C56.2 19.5002 55.9 19.3002 55.5 19.2002C55.2 19.1002 54.9 19.1002 54.6 19.3002L10.5 44.6002L32.2 7.0002H32.3L47.2 15.5002C47.5 15.7002 47.8 15.8002 48.2 15.7002C48.5 15.6002 48.8 15.4002 48.9 15.1002C49.1 14.7002 49.2 14.4002 49.1 14.1002C49 13.8002 48.8 13.5002 48.5 13.4002L32.4 4.1002C31.8 3.7002 31.2 3.8002 30.8 4.3002C30.7 4.4002 30.6 4.5002 30.5 4.6002L5.1 48.9002V5.3002H22.4C23.1 5.3002 23.7 4.7002 23.7 4.0002C23.7 3.3002 23.1 2.7002 22.4 2.7002H3.8C3.4 2.7002 3.1 2.9002 2.9 3.1002C2.6 3.4002 2.5 3.7002 2.5 4.2002V56.8002C2.6 60.3002 3.9 63.4002 6.3 65.8002C8.7 68.2002 11.8 69.5002 15.3 69.6002H68C68.7 69.6002 69.3 69.0002 69.3 68.3002V45.2002ZM15.2 67.0002C9.6 66.9002 5.1 62.3002 5.1 56.8002V56.6002C5.2 51.0002 9.7 46.4002 15.2 46.4002H66.7V66.9002L15.2 67.0002Z" fill="#5186A6"/>
<path d="M57.6 61.6002C58 61.5002 58.3 61.4002 58.5 61.2002C58.7 61.0002 58.9 60.6002 58.9 60.3002V53.0002C58.9 52.7002 58.8 52.3002 58.5 52.1002C58.3 51.9002 57.9 51.7002 57.6 51.7002H47.8C47.6 51.7002 47.5 51.7002 47.3 51.8002L47 51.9002H28.2C27.9 51.9002 27.5 52.0002 27.3 52.3002C27.1 52.5002 26.9 52.9002 26.9 53.2002V60.5002C27 60.9002 27.1 61.2002 27.3 61.4002C27.5 61.6002 27.9 61.8002 28.2 61.8002H37.9C38 61.8002 38.1 61.8002 38.1 61.7002H38.3L47.7 61.8002C47.8 61.8002 48 61.8002 48.2 61.7002L48.5 61.6002H57.6ZM49.2 54.2002H56.4V59.1002H49.2V54.2002ZM29.7 59.3002V54.4002H36.8V59.3002H29.7ZM39.4 59.2002V54.3002H46.6V59.2002H39.4Z" fill="#5186A6"/>
<path d="M15.3 55.3003C14.5 55.3003 13.9 56.0003 13.9 56.7003C13.8 57.1003 14 57.5003 14.3 57.8003C14.6 58.1003 15 58.3003 15.4 58.3003C16.2 58.2003 16.9 57.5003 16.9 56.8003C16.8 56.0003 16.1 55.3003 15.3 55.3003Z" fill="#5186A6"/>
</svg>
