<svg width="72" height="72" viewBox="0 0 72 72" fill="none" xmlns="http://www.w3.org/2000/svg">
<g clip-path="url(#clip0)">
<path d="M0.299988 64.4002C0.299988 68.5002 3.49999 71.8002 7.69999 71.8002H64.6C68.7 71.8002 72 68.6002 72 64.4002V7.6002C71.9 3.4002 68.7 0.200195 64.5 0.200195H7.69999C3.59999 0.200195 0.299988 3.4002 0.299988 7.6002V64.4002ZM2.99999 7.6002C2.99999 5.1002 5.09999 3.0002 7.59999 3.0002H64.5C66.9 3.0002 69 5.1002 69 7.6002V64.5002C69 67.0002 66.9 69.1002 64.4 69.1002H7.69999C5.19999 69.1002 3.09999 67.0002 3.09999 64.5002V8.1002H2.99999V7.6002Z" fill="#5186A6"/>
<path d="M28.6 12.5002H6.60001V15.2002H28.6V12.5002Z" fill="#5186A6"/>
<path d="M10.8 6.50024H8.10001V9.20024H10.8V6.50024Z" fill="#5186A6"/>
<path d="M16.7 6.50024H14V9.20024H16.7V6.50024Z" fill="#5186A6"/>
<path d="M64 6.50024H61.3V9.20024H64V6.50024Z" fill="#5186A6"/>
<path d="M6.60001 59.7003C6.60001 61.4003 7.70001 62.5003 9.40001 62.5003H62.6C64.4 62.5003 65.5 61.4003 65.5 59.6003V27.1003C65.5 25.3003 64.4 24.2003 62.6 24.2003H48.4L37.1 12.8003C36.6 12.3003 35.7 12.3003 35.2 12.8003L23.7 24.3003H9.50001C7.70001 24.3003 6.60001 25.4003 6.60001 27.2003V59.7003ZM36 15.8003L44.5 24.3003H27.5L36 15.8003ZM9.30001 27.0003H62.7V59.7003H9.80001V59.3003H9.30001V27.0003Z" fill="#5186A6"/>
<path d="M64 12.5002H43.5V15.2002H64V12.5002Z" fill="#5186A6"/>
<path d="M31.5 46.5003H28.8V49.6003C28.8 50.2003 28.2 50.9003 27.2 50.9003H23.9C23 50.9003 22.6 50.4003 22.6 49.3003V37.2003C22.6 36.6003 23.2 35.9003 24.2 35.9003H27.5C28.4 35.9003 28.8 36.4003 28.8 37.5003V40.4003H31.5V37.3003C31.5 35.0003 29.6 33.1003 27.2 33.1003H23.9C21.7 33.1003 19.9 35.0003 19.9 37.4003V49.5003C19.9 51.7003 21.8 53.5003 24.2 53.5003H27.5C29.7 53.5003 31.5 51.6003 31.5 49.2003V46.5003Z" fill="#5186A6"/>
<path d="M50.8 46.5003H47.8V40.4003H50.8V37.7003H47.8V33.1003H45.1V37.5003H40.5V33.1003H37.8V37.5003H34.8V40.2003H37.8V46.5003H34.8V49.2003H37.8V53.6003H40.5V49.2003H45.1V53.6003H47.8V49.2003H50.8V46.5003ZM45 46.5003H40.4V40.4003H44.5V40.8003H45V46.5003Z" fill="#5186A6"/>
</g>
<defs>
<clipPath id="clip0">
<rect width="72" height="72" fill="white" transform="translate(0 0.000244141)"/>
</clipPath>
</defs>
</svg>
