<svg width="72" height="72" viewBox="0 0 72 72" fill="none" xmlns="http://www.w3.org/2000/svg">
<g clip-path="url(#clip0)">
<path d="M55.1 72.0003H68.3C70.3 72.0003 71.9 70.3003 71.9 68.1003V38.6003C71.9 36.6003 70.6 35.0003 68.8 34.7003L68.4 34.6003V6.50034C68.4 3.00034 65.7 0.100342 62.4 0.100342H9.6C6.3 0.100342 3.6 3.00034 3.6 6.50034V25.7003L3.2 25.8003C1.4 26.0003 0 27.6003 0 29.6003V68.2003C0 70.3003 1.6 72.0003 3.6 72.0003H30C31.8 72.0003 33.4 70.5003 33.6 68.6003V68.1003H43.7C44.9 68.1003 45.9 67.6003 46.5 66.6003C47.2 65.6003 47.4 64.5003 47.1 63.2003L44.8 54.0003H51.6V68.2003C51.6 70.3003 53.2 72.0003 55.1 72.0003ZM69.6 68.1003C69.6 68.8003 69.1 69.3003 68.4 69.3003H55.1C54.4 69.3003 53.9 68.8003 53.9 68.1003V65.6003H69.6V68.1003ZM69.6 63.1003H53.9V43.8003H69.6V63.1003ZM68.4 37.4003C69.1 37.4003 69.6 37.9003 69.6 38.6003V41.1003H53.9V38.6003C53.9 37.9003 54.4 37.4003 55.1 37.4003H68.4ZM31.2 68.2003C31.2 68.9003 30.7 69.4003 30 69.4003H3.6C2.9 69.4003 2.4 68.9003 2.4 68.2003V65.7003H31.2V68.2003ZM31.2 63.0003H2.9V62.6003H2.4V34.8003H31.2V63.0003ZM31.2 32.2003H2.4V29.7003C2.4 29.0003 2.9 28.5003 3.6 28.5003H30C30.7 28.5003 31.2 29.0003 31.2 29.7003V32.2003ZM30 25.7003H6V6.50034C6 4.40034 7.6 2.60034 9.6 2.60034H62.4C64.4 2.60034 66 4.30034 66 6.50034V34.7003H55.1C53.1 34.7003 51.5 36.4003 51.5 38.6003V41.1003H33.5V29.7003C33.5 27.5003 31.9 25.7003 30 25.7003ZM33.5 54.0003H42.2L43.8 60.4003H33.5V54.0003ZM44.6 65.0003C44.5 65.2003 44.2 65.6003 43.6 65.6003H33.6V63.1003H44.6L44.8 64.0003C44.9 64.4003 44.8 64.6003 44.6 65.0003ZM33.5 51.5003V43.9003H51.5V51.5003H33.5Z" fill="#5186A6"/>
<path d="M12.8 49.8002L11.1 48.0002L6.3 53.2002L8 55.0002L12.8 49.8002Z" fill="#5186A6"/>
<path d="M27.2 43.4002L25.5 41.5002L11.1 57.0002L12.8 58.8002L27.2 43.4002Z" fill="#5186A6"/>
<path d="M20.7 37.7004L13.5 45.4004L15.2 47.3004L22.5 39.5004L20.7 37.7004Z" fill="#5186A6"/>
<path d="M64.4 48.5004L62.7 46.7004L56.7 53.1004L58.4 54.9004L64.4 48.5004Z" fill="#5186A6"/>
<path d="M65.1 51.8003L59.1 58.3003L60.8 60.1003L66.8 53.6003L65.1 51.8003Z" fill="#5186A6"/>
<path d="M38.7 14.5002L31.5 22.3002L33.2 24.1002L40.4 16.4002L38.7 14.5002Z" fill="#5186A6"/>
<path d="M44 21.6002L51.3 13.8002L49.5 12.0002L42.3 19.7002L44 21.6002Z" fill="#5186A6"/>
<path d="M39.9 22.3003L35.1 27.4003L36.8 29.2003L41.6 24.1003L39.9 22.3003Z" fill="#5186A6"/>
<path d="M45.9 6.90039L41.1 12.0004L42.8 13.9004L47.6 8.70039L45.9 6.90039Z" fill="#5186A6"/>
<path d="M10.7 5.10034H8.4V7.70034H10.7V5.10034Z" fill="#5186A6"/>
<path d="M15.5 5.10034H13.2V7.70034H15.5V5.10034Z" fill="#5186A6"/>
<path d="M20.3 5.10034H18V7.70034H20.3V5.10034Z" fill="#5186A6"/>
</g>
<defs>
<clipPath id="clip0">
<rect width="72" height="72" fill="white" transform="translate(0 0.000244141)"/>
</clipPath>
</defs>
</svg>
