<?xml version="1.0" encoding="utf-8"?>
<!-- Generator: Adobe Illustrator 24.0.2, SVG Export Plug-In . SVG Version: 6.00 Build 0)  -->
<svg version="1.1" id="Layer_1" xmlns="http://www.w3.org/2000/svg" xmlns:xlink="http://www.w3.org/1999/xlink" x="0px" y="0px"
	 viewBox="0 0 72 72" style="enable-background:new 0 0 72 72;" xml:space="preserve">
<style type="text/css">
	.st0{fill:none;}
</style>
<rect class="st0" width="72" height="72"/>
<g>
	<g>
		<g>
			<path d="M65.2,2.8H6.8C3,2.8,0,5.9,0,9.6v38.8c0,3.7,3,6.8,6.8,6.8h19.3c-0.2,3.7-0.8,7.4-2,10.8h-4.7c-0.9,0-1.5,0.7-1.5,1.5
				s0.7,1.5,1.5,1.5h33.3c0.9,0,1.5-0.7,1.5-1.5s-0.7-1.5-1.5-1.5h-4.7c-1.2-3.5-1.8-7.1-2-10.8h19.3c3.7,0,6.8-3.1,6.8-6.8V9.6
				C72,5.9,69,2.8,65.2,2.8z M3.1,9.6c0-2,1.7-3.7,3.7-3.7h58.4c2,0,3.7,1.7,3.7,3.7V45H3.1V9.6z M27.3,66.1
				c1.1-3.5,1.7-7.1,1.8-10.8h13.7c0.2,3.7,0.8,7.4,1.8,10.8H27.3z M68.9,48.4L68.9,48.4c0,2-1.7,3.7-3.7,3.7H6.8
				c-2,0-3.7-1.7-3.7-3.7v-0.3h65.8V48.4z"/>
			<path d="M56.6,38.8H23.3c-0.9,0-1.5,0.7-1.5,1.5c0,0.9,0.7,1.5,1.5,1.5h33.3c0.9,0,1.5-0.7,1.5-1.5
				C58.2,39.5,57.5,38.8,56.6,38.8z"/>
			<path d="M15.6,38.8h-0.2c-0.9,0-1.5,0.7-1.5,1.5c0,0.9,0.7,1.5,1.5,1.5h0.2c0.9,0,1.5-0.7,1.5-1.5C17.2,39.5,16.5,38.8,15.6,38.8
				z"/>
			<path d="M45.1,15.7l9.1,7.8l-9.1,7.8c-0.6,0.6-0.7,1.5-0.2,2.2c0.3,0.4,0.7,0.5,1.2,0.5c0.4,0,0.7-0.1,1-0.4l10.5-9
				c0.3-0.3,0.5-0.7,0.5-1.2c0-0.5-0.2-0.9-0.5-1.2l-10.5-9c-0.6-0.6-1.6-0.5-2.2,0.2C44.4,14.1,44.5,15.1,45.1,15.7z"/>
			<path d="M14.3,24.6l10.5,9c0.3,0.2,0.6,0.4,1,0.4c0.4,0,0.9-0.2,1.2-0.5c0.6-0.6,0.5-1.6-0.2-2.2l-9.1-7.8l9.1-7.8
				c0.6-0.6,0.7-1.5,0.2-2.2c-0.6-0.6-1.5-0.7-2.2-0.2l-10.5,9c-0.3,0.3-0.5,0.7-0.5,1.2C13.8,23.9,14,24.3,14.3,24.6z"/>
			<path d="M31.6,37.1c0.2,0.1,0.3,0.1,0.5,0.1c0.7,0,1.3-0.4,1.5-1.1l7.9-24.3c0.3-0.8-0.2-1.7-1-2c-0.8-0.3-1.7,0.2-2,1l-7.9,24.3
				C30.3,35.9,30.8,36.8,31.6,37.1z"/>
		</g>
	</g>
</g>
</svg>
