<?xml version="1.0" encoding="utf-8"?>
<!-- Generator: Adobe Illustrator 24.0.2, SVG Export Plug-In . SVG Version: 6.00 Build 0)  -->
<svg version="1.1" id="Capa_1" xmlns="http://www.w3.org/2000/svg" xmlns:xlink="http://www.w3.org/1999/xlink" x="0px" y="0px"
	 viewBox="0 0 72 72" style="enable-background:new 0 0 72 72;" xml:space="preserve">
<style type="text/css">
	.st0{fill:none;}
</style>
<rect class="st0" width="72" height="72"/>
<g>
	<g>
		<path d="M65.3,60.5H6.7c-3.7,0-6.7-3-6.7-6.7V15c0-3.7,3-6.7,6.7-6.7h6.2c1,0,1.8,0.8,1.8,1.8s-0.8,1.8-1.8,1.8H6.7
			c-1.7,0-3.1,1.4-3.1,3.1v38.8c0,1.7,1.4,3.1,3.1,3.1h58.5c1.7,0,3.1-1.4,3.1-3.1V15c0-1.7-1.4-3.1-3.1-3.1h-6.2
			c-1,0-1.8-0.8-1.8-1.8s0.8-1.8,1.8-1.8h6.2c3.7,0,6.7,3,6.7,6.7v38.8C72,57.5,69,60.5,65.3,60.5z"/>
	</g>
	<g>
		<path d="M62.9,48.7H9.1c-1,0-1.8-0.8-1.8-1.8s0.8-1.8,1.8-1.8h53.7c1,0,1.8,0.8,1.8,1.8S63.9,48.7,62.9,48.7z"/>
	</g>
	<g>
		<path d="M37.5,54.6h-3c-1,0-1.8-0.8-1.8-1.8s0.8-1.8,1.8-1.8h3c1,0,1.8,0.8,1.8,1.8S38.5,54.6,37.5,54.6z"/>
	</g>
	<g>
		<path d="M47.1,72H24.9c-0.8,0-1.5-0.5-1.7-1.2c-0.2-0.7,0-1.6,0.6-2l0.5-0.4c3-2.3,4.8-5.9,4.8-9.7c0-1,0.8-1.8,1.8-1.8h10.1
			c1,0,1.8,0.8,1.8,1.8c0,3.8,1.8,7.4,4.8,9.7l0.5,0.4c0.6,0.5,0.9,1.3,0.6,2C48.6,71.5,47.9,72,47.1,72z M29.4,68.3h13.1
			c-1.8-2.3-2.9-5-3.2-7.9h-6.7C32.3,63.3,31.2,66.1,29.4,68.3z"/>
	</g>
	<g>
		<g>
			<path d="M54.8,11.3C54.8,11.3,54.8,11.2,54.8,11.3c0-0.1,0-0.1,0-0.1c0,0,0-0.1,0-0.1c0,0,0-0.1,0-0.1c0-0.1-0.1-0.2-0.1-0.2
				c0-0.1-0.1-0.1-0.1-0.2c0,0,0-0.1-0.1-0.1c0,0,0,0-0.1-0.1c0,0-0.1-0.1-0.1-0.1c0,0-0.1-0.1-0.1-0.1c0,0-0.1,0-0.1-0.1
				c0,0,0,0,0,0c0,0,0,0-0.1,0c0,0,0,0,0,0L37,0.3c0,0,0,0,0,0c0,0,0,0-0.1,0c0,0,0,0-0.1,0c0,0,0,0,0,0c0,0-0.1,0-0.1,0
				c-0.1,0-0.1-0.1-0.2-0.1c0,0-0.1,0-0.1,0c0,0-0.1,0-0.1,0c0,0,0,0-0.1,0c0,0,0,0-0.1,0c0,0-0.1,0-0.1,0c0,0-0.1,0-0.1,0
				c0,0-0.1,0-0.1,0c0,0-0.1,0-0.1,0c0,0-0.1,0-0.1,0c-0.1,0-0.2,0-0.2,0.1c0,0,0,0-0.1,0c0,0-0.1,0-0.1,0.1c0,0,0,0-0.1,0
				c0,0,0,0,0,0L18.1,10c0,0,0,0,0,0c0,0,0,0-0.1,0c0,0,0,0,0,0c0,0-0.1,0-0.1,0.1c0,0,0,0,0,0c0,0-0.1,0-0.1,0.1
				c0,0-0.1,0.1-0.1,0.1c0,0-0.1,0.1-0.1,0.1c0,0,0,0,0,0.1c0,0.1-0.1,0.1-0.1,0.2c-0.1,0.2-0.2,0.4-0.2,0.6c0,0,0,0.1,0,0.1
				c0,0.1,0,0.2,0,0.3v19.6c0,0,0,0.1,0,0.1c0,0,0,0.1,0,0.1c0,0,0,0,0,0c0,0,0,0,0,0c0,0,0,0,0,0.1c0,0,0,0,0,0c0,0,0,0.1,0,0.1
				c0,0,0,0.1,0,0.1c0,0,0,0,0,0.1c0,0,0,0,0,0.1c0,0,0,0,0,0c0,0,0,0,0,0c0,0,0,0,0,0.1c0,0,0,0.1,0,0.1c0.1,0.1,0.1,0.2,0.2,0.3
				c0,0,0.1,0.1,0.1,0.1c0,0,0,0,0.1,0.1c0,0,0,0,0.1,0c0,0,0,0,0.1,0.1c0,0,0.1,0,0.1,0.1c0,0,0.1,0,0.1,0.1L35,42.6c0,0,0,0,0,0
				c0,0,0.1,0,0.1,0.1c0,0,0,0,0,0c0,0,0.1,0,0.1,0c0,0,0.1,0,0.1,0c0,0,0.1,0,0.1,0c0,0,0.1,0,0.1,0c0,0,0.1,0,0.1,0
				c0,0,0.1,0,0.1,0c0,0,0,0,0,0c0,0,0.1,0,0.1,0c0,0,0.1,0,0.1,0c0,0,0,0,0,0c0,0,0.1,0,0.1,0c0,0,0.1,0,0.1,0c0,0,0.1,0,0.1,0
				c0,0,0.1,0,0.1,0c0,0,0.1,0,0.1,0c0,0,0.1,0,0.1,0c0,0,0.1,0,0.1-0.1c0,0,0,0,0,0l16.9-9.8c0,0,0,0,0,0c0,0,0,0,0.1,0
				c0,0,0.1-0.1,0.1-0.1c0.1,0,0.1-0.1,0.2-0.1c0,0,0.1-0.1,0.1-0.1c0,0,0.1-0.1,0.1-0.1c0-0.1,0.1-0.1,0.1-0.2
				c0-0.1,0.1-0.2,0.1-0.2c0,0,0-0.1,0-0.1c0,0,0-0.1,0-0.1c0,0,0,0,0-0.1c0,0,0,0,0-0.1c0-0.1,0-0.2,0-0.4V11.6
				C54.8,11.5,54.8,11.4,54.8,11.3z M37.8,37.9L36,38.9l-1.8-1.1l-11.5-6.6l-1.8-1.1V12.7l1.8-1.1L34.2,5L36,3.9L37.8,5l11.5,6.6
				l1.8,1.1v17.5l-1.8,1.1L37.8,37.9z"/>
		</g>
		<g>
			<path d="M44.8,15.3l-0.9-0.5l-7-4c-0.6-0.3-1.3-0.3-1.8,0l-7,4l-0.9,0.5c-0.6,0.3-0.9,0.9-0.9,1.6V26c0,0.7,0.3,1.3,0.9,1.6l7,4
				l0.9,0.5c0.3,0.2,0.6,0.2,0.9,0.2s0.6-0.1,0.9-0.2l0.9-0.5l7-4c0.6-0.3,0.9-0.9,0.9-1.6v-9.1C45.7,16.2,45.3,15.6,44.8,15.3z
				 M42,24.9l-4.2,2.4L36,28.4l-1.8-1.1L30,24.9v-7l1.8-1.1l4.2-2.4l4.2,2.4l1.8,1.1V24.9z"/>
		</g>
		<g>
			<path d="M54.8,11.6c0,0.6-0.3,1.2-0.9,1.6l-2.7,1.6l-5.5,3.2L42,20l-4.2,2.4L36.9,23c-0.3,0.2-0.6,0.2-0.9,0.2s-0.6-0.1-0.9-0.2
				l-0.9-0.5L30,20l-3.6-2.1l-5.5-3.2l-2.7-1.6c-0.6-0.3-0.9-0.9-0.9-1.6c0-0.1,0-0.2,0-0.3c0,0,0-0.1,0-0.1c0-0.2,0.1-0.4,0.2-0.6
				c0-0.1,0.1-0.1,0.1-0.2c0,0,0,0,0-0.1c0,0,0.1-0.1,0.1-0.1c0,0,0.1-0.1,0.1-0.1c0,0,0.1,0,0.1-0.1c0,0,0,0,0,0c0,0,0.1,0,0.1-0.1
				c0,0,0,0,0,0c0,0,0,0,0.1,0c0,0,0,0,0,0c0.5-0.3,1.2-0.3,1.8,0l2.7,1.6l5.5,3.2l3.6,2.1l4.2,2.4l4.2-2.4l3.6-2.1l5.5-3.2l2.7-1.6
				c0.6-0.3,1.3-0.3,1.8,0c0,0,0,0,0,0c0,0,0,0,0.1,0c0,0,0,0,0,0c0,0,0.1,0,0.1,0.1c0,0,0.1,0,0.1,0.1c0,0,0.1,0.1,0.1,0.1
				c0,0,0,0,0.1,0.1c0,0,0.1,0.1,0.1,0.1c0,0.1,0.1,0.1,0.1,0.2c0,0.1,0.1,0.2,0.1,0.2c0,0,0,0.1,0,0.1c0,0,0,0.1,0,0.1
				c0,0,0,0,0,0.1c0,0,0,0,0,0.1C54.8,11.4,54.8,11.5,54.8,11.6z"/>
		</g>
		<g>
			<path d="M37.8,21.4V41c0,0.7-0.4,1.2-0.9,1.6c0,0,0,0,0,0c0,0-0.1,0-0.1,0.1c0,0-0.1,0-0.1,0c0,0-0.1,0-0.1,0c0,0-0.1,0-0.1,0
				c0,0-0.1,0-0.1,0c0,0-0.1,0-0.1,0c0,0-0.1,0-0.1,0c0,0,0,0,0,0c0,0-0.1,0-0.1,0c0,0-0.1,0-0.1,0c0,0,0,0,0,0c0,0-0.1,0-0.1,0
				c0,0-0.1,0-0.1,0c0,0-0.1,0-0.1,0c0,0-0.1,0-0.1,0c0,0-0.1,0-0.1,0c0,0-0.1,0-0.1,0c0,0,0,0,0,0c0,0-0.1,0-0.1-0.1c0,0,0,0,0,0
				c-0.5-0.3-0.9-0.9-0.9-1.6V21.4c0-1,0.8-1.8,1.8-1.8C37,19.6,37.8,20.4,37.8,21.4z"/>
		</g>
		<g>
			<path d="M24.5,30.2l-1.8,1l-2.7,1.6c-0.3,0.2-0.6,0.2-0.9,0.2c-0.3,0-0.6-0.1-0.9-0.2c0,0-0.1,0-0.1-0.1c0,0-0.1,0-0.1-0.1
				c0,0,0,0-0.1-0.1c0,0,0,0-0.1,0c0,0,0,0-0.1-0.1c0,0-0.1-0.1-0.1-0.1c-0.1-0.1-0.2-0.2-0.2-0.3c0,0,0-0.1,0-0.1c0,0,0,0,0-0.1
				c0,0,0,0,0,0c0,0,0,0,0,0c0,0,0,0,0-0.1c0,0,0,0,0-0.1c0,0,0-0.1,0-0.1c0,0,0-0.1,0-0.1c0,0,0,0,0,0c0,0,0,0,0-0.1c0,0,0,0,0,0
				c0,0,0,0,0,0c0,0,0-0.1,0-0.1c0,0,0-0.1,0-0.1c0-0.6,0.3-1.2,0.9-1.6l2.7-1.6l1.8-1c0.9-0.5,2-0.2,2.5,0.7
				C25.7,28.6,25.4,29.7,24.5,30.2z"/>
		</g>
		<g>
			<path d="M54.8,31.2c0,0.1,0,0.2,0,0.4c0,0,0,0,0,0.1c0,0,0,0,0,0.1c0,0,0,0.1,0,0.1c0,0,0,0.1,0,0.1c0,0.1-0.1,0.2-0.1,0.2
				c0,0.1-0.1,0.1-0.1,0.2c0,0,0,0.1-0.1,0.1c0,0-0.1,0.1-0.1,0.1c-0.1,0.1-0.1,0.1-0.2,0.1c0,0-0.1,0.1-0.1,0.1c0,0,0,0-0.1,0
				c0,0,0,0,0,0c-0.3,0.2-0.6,0.2-0.9,0.2c-0.3,0-0.6-0.1-0.9-0.2l-2.7-1.6l-1.8-1c-0.9-0.5-1.2-1.6-0.7-2.5
				c0.5-0.9,1.6-1.2,2.5-0.7l1.8,1l2.7,1.6C54.5,30,54.8,30.6,54.8,31.2z"/>
		</g>
		<g>
			<path d="M37.8,1.8v5.3c0,1-0.8,1.8-1.8,1.8c-1,0-1.8-0.8-1.8-1.8V1.8c0-0.7,0.3-1.2,0.9-1.6c0,0,0,0,0,0c0,0,0,0,0.1,0
				c0,0,0.1,0,0.1-0.1c0,0,0,0,0.1,0c0.1,0,0.1-0.1,0.2-0.1c0,0,0.1,0,0.1,0c0,0,0.1,0,0.1,0c0,0,0.1,0,0.1,0c0,0,0.1,0,0.1,0
				c0,0,0.1,0,0.1,0c0,0,0,0,0.1,0c0,0,0,0,0.1,0c0,0,0.1,0,0.1,0c0,0,0.1,0,0.1,0c0.1,0,0.2,0,0.2,0.1c0,0,0.1,0,0.1,0c0,0,0,0,0,0
				c0,0,0,0,0.1,0c0,0,0,0,0.1,0c0,0,0,0,0,0C37.5,0.6,37.8,1.2,37.8,1.8z"/>
		</g>
	</g>
</g>
</svg>
