<?xml version="1.0" encoding="utf-8"?>
<!-- Generator: Adobe Illustrator 24.0.2, SVG Export Plug-In . SVG Version: 6.00 Build 0)  -->
<svg version="1.1" id="Layer_1" xmlns="http://www.w3.org/2000/svg" xmlns:xlink="http://www.w3.org/1999/xlink" x="0px" y="0px"
	 viewBox="0 0 24 24" style="enable-background:new 0 0 24 24;" xml:space="preserve">
<style type="text/css">
	.st0{fill-rule:evenodd;clip-rule:evenodd;}
	.st1{fill:none;}
</style>
<g>
	<g id="XMLID_1_">
		<path id="XMLID_807_" class="st0" d="M20.7,13.8c0.8,0.8,1.6,1.5,2.3,2.4c0.3,0.4,0.6,0.8,0.8,1.2c0.3,0.6,0,1.3-0.5,1.4h-3.5
			c-0.9,0.1-1.6-0.3-2.2-0.9c-0.5-0.5-0.9-1-1.4-1.5c-0.2-0.2-0.4-0.4-0.6-0.6c-0.5-0.3-0.9-0.2-1.2,0.3c-0.3,0.5-0.3,1.1-0.4,1.6
			c0,0.8-0.3,1-1.1,1.1c-1.8,0.1-3.4-0.2-5-1.1c-1.4-0.8-2.4-1.9-3.4-3.1c-1.8-2.4-3.2-5.1-4.4-7.9c-0.3-0.6-0.1-1,0.6-1
			c1.1,0,2.3,0,3.4,0c0.5,0,0.8,0.3,1,0.7c0.6,1.5,1.4,3,2.3,4.3c0.3,0.4,0.5,0.7,0.9,1s0.7,0.2,0.9-0.3c0.1-0.3,0.2-0.6,0.2-0.9
			c0.1-1.1,0.1-2.1-0.1-3.2c0-0.6-0.4-1.1-1.1-1.2c-0.3,0-0.3-0.2-0.1-0.4c0.3-0.3,0.5-0.5,1.1-0.5h4c0.6,0.1,0.8,0.4,0.8,1v4.4
			c0,0.2,0.1,1,0.6,1.1c0.4,0.1,0.6-0.2,0.8-0.4c0.9-1,1.6-2.2,2.2-3.4c0.3-0.5,0.5-1.1,0.7-1.7c0.2-0.4,0.4-0.6,0.9-0.6H23
			c0.1,0,0.2,0,0.3,0c0.6,0.1,0.8,0.4,0.6,1c-0.3,1-0.9,1.8-1.5,2.6c-0.6,0.9-1.3,1.7-1.9,2.6C19.9,12.7,19.9,13.1,20.7,13.8
			L20.7,13.8z"/>
	</g>
	<rect class="st1" width="24" height="24"/>
</g>
</svg>
