<?xml version="1.0" encoding="utf-8"?>
<!-- Generator: Adobe Illustrator 24.0.2, SVG Export Plug-In . SVG Version: 6.00 Build 0)  -->
<svg version="1.1" id="Capa_1" xmlns="http://www.w3.org/2000/svg" xmlns:xlink="http://www.w3.org/1999/xlink" x="0px" y="0px"
	 viewBox="0 0 72 72" style="enable-background:new 0 0 72 72;" xml:space="preserve">
<style type="text/css">
	.st0{fill:none;}
</style>
<rect class="st0" width="72" height="72"/>
<g>
	<g>
		<g>
			<path d="M40.6,38c-0.4,0.5-0.9,0.7-1.4,0.7c-0.4,0-0.8-0.1-1.1-0.4l-6.5-5.2c0,0,0,0,0,0l-2.6-2.1c-0.4-0.3-0.9-0.3-1.3,0
				l-9.1,7.3c-0.8,0.6-1.9,0.5-2.6-0.3c-0.6-0.8-0.5-1.9,0.3-2.6l9.1-7.3c1.7-1.4,4.1-1.4,5.9,0l1.5,1.2l2.9,2.3l4.7,3.8
				C41.1,36,41.2,37.2,40.6,38z"/>
		</g>
		<g>
			<path d="M49,31.6c-0.6,0.8-1.8,0.9-2.6,0.3l-4.9-3.9c-0.4-0.3-0.9-0.3-1.3,0l-4.6,3.7L33.8,33c-0.3,0.3-0.7,0.4-1.1,0.4
				c-0.4,0-0.8-0.1-1.1-0.4c0,0,0,0,0,0c-0.1-0.1-0.2-0.2-0.3-0.3c-0.6-0.8-0.5-1.9,0.3-2.6l1.1-0.9l5.2-4.2c1.7-1.4,4.1-1.4,5.9,0
				l4.9,3.9C49.5,29.6,49.6,30.8,49,31.6z"/>
		</g>
		<g>
			<path d="M21,16c-3,0-5.5,2.5-5.5,5.5s2.5,5.5,5.5,5.5c3,0,5.5-2.5,5.5-5.5S24,16,21,16z M21,23.3c-1,0-1.8-0.8-1.8-1.8
				c0-1,0.8-1.8,1.8-1.8c1,0,1.8,0.8,1.8,1.8C22.8,22.4,22,23.3,21,23.3z"/>
		</g>
	</g>
	<g>
		<path d="M64.7,42.8c0,1-0.8,1.8-1.8,1.8H9.1c-1,0-1.8-0.8-1.8-1.8c0-1,0.8-1.8,1.8-1.8h53.7C63.9,41,64.7,41.8,64.7,42.8z"/>
	</g>
	<g>
		<path d="M64.7,11.8c0,1-0.8,1.8-1.8,1.8H9.1c-1,0-1.8-0.8-1.8-1.8c0-1,0.8-1.8,1.8-1.8h53.7C63.9,10,64.7,10.8,64.7,11.8z"/>
	</g>
	<g>
		<path d="M12.4,17.8c0,1-0.8,1.8-1.8,1.8H9.1c-1,0-1.8-0.8-1.8-1.8S8.1,16,9.1,16h1.5C11.6,16,12.4,16.8,12.4,17.8z"/>
	</g>
	<g>
		<path d="M12.4,36.8c0,1-0.8,1.8-1.8,1.8H9.1c-1,0-1.8-0.8-1.8-1.8c0-1,0.8-1.8,1.8-1.8h1.5C11.6,35,12.4,35.8,12.4,36.8z"/>
	</g>
	<g>
		<path d="M12.4,32.1c0,1-0.8,1.8-1.8,1.8H9.1c-1,0-1.8-0.8-1.8-1.8c0-1,0.8-1.8,1.8-1.8h1.5C11.6,30.2,12.4,31.1,12.4,32.1z"/>
	</g>
	<g>
		<path d="M12.4,27.3c0,1-0.8,1.8-1.8,1.8H9.1c-1,0-1.8-0.8-1.8-1.8c0-1,0.8-1.8,1.8-1.8h1.5C11.6,25.5,12.4,26.3,12.4,27.3z"/>
	</g>
	<g>
		<path d="M12.4,22.5c0,1-0.8,1.8-1.8,1.8H9.1c-1,0-1.8-0.8-1.8-1.8s0.8-1.8,1.8-1.8h1.5C11.6,20.7,12.4,21.5,12.4,22.5z"/>
	</g>
	<g>
		<g>
			<path d="M65.3,4.1H6.7C3,4.1,0,7.1,0,10.9v38.8c0,3.7,3,6.7,6.7,6.7h58.5c3.7,0,6.7-3,6.7-6.7V10.9C72,7.1,69,4.1,65.3,4.1z
				 M68.4,49.6c0,1.7-1.4,3.1-3.1,3.1H6.7c-1.7,0-3.1-1.4-3.1-3.1V10.9c0-1.7,1.4-3.1,3.1-3.1h58.5c1.7,0,3.1,1.4,3.1,3.1V49.6z"/>
		</g>
	</g>
	<g>
		<path d="M39.3,48.7c0,1-0.8,1.8-1.8,1.8h-3c-1,0-1.8-0.8-1.8-1.8c0-1,0.8-1.8,1.8-1.8h3C38.5,46.8,39.3,47.7,39.3,48.7z"/>
	</g>
	<g>
		<path d="M48.2,64.6l-0.5-0.4c-2.5-1.9-4.2-4.8-4.7-7.9c-0.1-0.6-0.1-1.2-0.1-1.8c0-1-0.8-1.8-1.8-1.8H30.9c-1,0-1.8,0.8-1.8,1.8
			c0,0.6,0,1.2-0.1,1.8c-0.5,3.1-2.2,6-4.7,7.9l-0.5,0.4c-0.6,0.5-0.9,1.3-0.6,2c0.2,0.7,0.9,1.2,1.7,1.2h22.2
			c0.8,0,1.5-0.5,1.7-1.2C49.1,65.9,48.8,65.1,48.2,64.6z M29.4,64.2c1.8-2.3,2.9-5,3.2-7.9h6.7c0.3,2.9,1.5,5.6,3.2,7.9H29.4z"/>
	</g>
	<g>
		<path d="M64.7,17.8c0,1-0.8,1.8-1.8,1.8h-8.6c-1,0-1.8-0.8-1.8-1.8s0.8-1.8,1.8-1.8h8.6C63.9,16,64.7,16.8,64.7,17.8z"/>
	</g>
	<g>
		<path d="M60.4,22.5c0,1-0.8,1.8-1.8,1.8h-4.3c-1,0-1.8-0.8-1.8-1.8s0.8-1.8,1.8-1.8h4.3C59.6,20.7,60.4,21.5,60.4,22.5z"/>
	</g>
	<g>
		<path d="M64.7,27.3c0,1-0.8,1.8-1.8,1.8h-8.6c-1,0-1.8-0.8-1.8-1.8c0-1,0.8-1.8,1.8-1.8h8.6C63.9,25.5,64.7,26.3,64.7,27.3z"/>
	</g>
	<g>
		<path d="M60.4,32.1c0,1-0.8,1.8-1.8,1.8h-4.3c-1,0-1.8-0.8-1.8-1.8c0-1,0.8-1.8,1.8-1.8h4.3C59.6,30.2,60.4,31.1,60.4,32.1z"/>
	</g>
	<g>
		<path d="M64.7,36.8c0,1-0.8,1.8-1.8,1.8h-8.6c-1,0-1.8-0.8-1.8-1.8c0-1,0.8-1.8,1.8-1.8h8.6C63.9,35,64.7,35.8,64.7,36.8z"/>
	</g>
</g>
</svg>
